Right_states
version=1
nRows=4
nColumns=140
inDegrees=yes

# SIMM Motion File Header:
name Right_states
datacolumns 140
datarows 4
otherdata 1
range 0.74714825 0.75019013
endheader
time	/jointset/sternoclavicular/sternoclavicular_r2/value	/jointset/sternoclavicular/sternoclavicular_r2/speed	/jointset/sternoclavicular/sternoclavicular_r3/value	/jointset/sternoclavicular/sternoclavicular_r3/speed	/jointset/unrotscap/unrotscap_r3/value	/jointset/unrotscap/unrotscap_r3/speed	/jointset/unrotscap/unrotscap_r2/value	/jointset/unrotscap/unrotscap_r2/speed	/jointset/acromioclavicular/acromioclavicular_r2/value	/jointset/acromioclavicular/acromioclavicular_r2/speed	/jointset/acromioclavicular/acromioclavicular_r3/value	/jointset/acromioclavicular/acromioclavicular_r3/speed	/jointset/acromioclavicular/acromioclavicular_r1/value	/jointset/acromioclavicular/acromioclavicular_r1/speed	/jointset/unrothum/unrothum_r1/value	/jointset/unrothum/unrothum_r1/speed	/jointset/unrothum/unrothum_r3/value	/jointset/unrothum/unrothum_r3/speed	/jointset/unrothum/unrothum_r2/value	/jointset/unrothum/unrothum_r2/speed	/jointset/shoulder0/elv_angle/value	/jointset/shoulder0/elv_angle/speed	/jointset/shoulder1/shoulder_elv/value	/jointset/shoulder1/shoulder_elv/speed	/jointset/shoulder1/shoulder1_r2/value	/jointset/shoulder1/shoulder1_r2/speed	/jointset/shoulder2/shoulder_rot/value	/jointset/shoulder2/shoulder_rot/speed	/jointset/elbow/elbow_flexion/value	/jointset/elbow/elbow_flexion/speed	/jointset/radioulnar/pro_sup/value	/jointset/radioulnar/pro_sup/speed	/jointset/radiocarpal/deviation/value	/jointset/radiocarpal/deviation/speed	/jointset/radiocarpal/flexion/value	/jointset/radiocarpal/flexion/speed	/jointset/wrist_hand/wrist_hand_r1/value	/jointset/wrist_hand/wrist_hand_r1/speed	/jointset/wrist_hand/wrist_hand_r3/value	/jointset/wrist_hand/wrist_hand_r3/speed	/forceset/DELT1/activation	/forceset/DELT1/fiber_length	/forceset/DELT2/activation	/forceset/DELT2/fiber_length	/forceset/DELT3/activation	/forceset/DELT3/fiber_length	/forceset/SUPSP/activation	/forceset/SUPSP/fiber_length	/forceset/INFSP/activation	/forceset/INFSP/fiber_length	/forceset/SUBSC/activation	/forceset/SUBSC/fiber_length	/forceset/TMIN/activation	/forceset/TMIN/fiber_length	/forceset/TMAJ/activation	/forceset/TMAJ/fiber_length	/forceset/PECM1/activation	/forceset/PECM2/activation	/forceset/PECM2/fiber_length	/forceset/PECM3/activation	/forceset/PECM3/fiber_length	/forceset/LAT1/activation	/forceset/LAT1/fiber_length	/forceset/LAT2/activation	/forceset/LAT2/fiber_length	/forceset/LAT3/activation	/forceset/LAT3/fiber_length	/forceset/CORB/activation	/forceset/CORB/fiber_length	/forceset/TRIlong/activation	/forceset/TRIlong/fiber_length	/forceset/TRIlat/activation	/forceset/TRIlat/fiber_length	/forceset/TRImed/activation	/forceset/TRImed/fiber_length	/forceset/ANC/activation	/forceset/ANC/fiber_length	/forceset/SUP/activation	/forceset/SUP/fiber_length	/forceset/BIClong/activation	/forceset/BIClong/fiber_length	/forceset/BICshort/activation	/forceset/BICshort/fiber_length	/forceset/BRA/activation	/forceset/BRA/fiber_length	/forceset/BRD/activation	/forceset/BRD/fiber_length	/forceset/ECRL/activation	/forceset/ECRL/fiber_length	/forceset/ECRB/activation	/forceset/ECRB/fiber_length	/forceset/ECU/activation	/forceset/ECU/fiber_length	/forceset/FCR/activation	/forceset/FCR/fiber_length	/forceset/FCU/activation	/forceset/FCU/fiber_length	/forceset/PL/activation	/forceset/PL/fiber_length	/forceset/PT/activation	/forceset/PT/fiber_length	/forceset/PQ/activation	/forceset/PQ/fiber_length	/forceset/FDSL/activation	/forceset/FDSL/fiber_length	/forceset/FDSR/activation	/forceset/FDSR/fiber_length	/forceset/FDSM/activation	/forceset/FDSM/fiber_length	/forceset/FDSI/activation	/forceset/FDSI/fiber_length	/forceset/FDPL/activation	/forceset/FDPL/fiber_length	/forceset/FDPR/activation	/forceset/FDPR/fiber_length	/forceset/FDPM/activation	/forceset/FDPM/fiber_length	/forceset/FDPI/activation	/forceset/FDPI/fiber_length	/forceset/EDCL/activation	/forceset/EDCL/fiber_length	/forceset/EDCR/activation	/forceset/EDCR/fiber_length	/forceset/EDCM/activation	/forceset/EDCM/fiber_length	/forceset/EDCI/activation	/forceset/EDCI/fiber_length	/forceset/EDM/activation	/forceset/EDM/fiber_length	/forceset/EIP/activation	/forceset/EIP/fiber_length	/forceset/EPL/activation	/forceset/EPL/fiber_length	/forceset/EPB/activation	/forceset/EPB/fiber_length	/forceset/FPL/activation	/forceset/FPL/fiber_length	/forceset/APL/activation	/forceset/APL/fiber_length
      0.74714825	     -1.35689604	    -21.17964686	      0.57471712	      8.97069878	     -0.57471712	     -8.97069879	      1.35689604	     21.17964686	     -0.27474385	     -4.28844766	      2.22038313	     34.65772552	      0.99804693	     15.57840910	     -0.99804693	    -15.57840910	     -2.22038313	    -34.65772552	      0.27474385	      4.28844766	    -31.04031270	     12.97588897	      5.60699586	     87.51900574	     31.04031270	    -12.97588897	     35.18220037	     32.74889918	     18.77625948	    122.88064560	     -1.34177342	   -151.45411577	     -0.00277057	     -0.12030676	      0.19080411	     -1.28271389	     -0.21578676	     -9.38611618	      5.46613519	    -36.74704620	      0.00002198	      0.12197035	      0.00002198	      0.10072108	      0.00002198	      0.13159194	      0.00002198	      0.07296820	      0.00002198	      0.08907301	      0.00002198	      0.08009782	      0.00002198	      0.06870744	      0.00002198	      0.12481726	      0.00002198	      0.00002198	      0.09987345	      0.00002198	      0.07980750	      0.00002198	      0.16928248	      0.00002198	      0.13501148	      0.00002198	      0.19694014	      0.00002198	      0.06819525	      0.00002198	      0.14757425	      0.00002198	      0.10139898	      0.00002198	      0.09642107	      0.00002198	      0.02260779	      0.00002198	      0.03435980	      0.00002198	      0.15107006	      0.00002198	      0.15740761	      0.00002198	      0.08903357	      0.00002198	      0.19386780	      0.00002198	      0.08937126	      0.00002198	      0.06491161	      0.00002198	      0.06537027	      0.00002198	      0.06273348	      0.00002198	      0.04379775	      0.00002198	      0.06183142	      0.00002198	      0.05795459	      0.00002198	      0.02685649	      0.00002198	      0.04760578	      0.00002198	      0.06938319	      0.00002198	      0.07072334	      0.00002198	      0.08307883	      0.00002198	      0.07274744	      0.00002198	      0.07660856	      0.00002198	      0.07298609	      0.00002198	      0.07259568	      0.00002198	      0.07837584	      0.00002198	      0.06690899	      0.00002198	      0.07905881	      0.00002198	      0.07289321	      0.00002198	      0.07624891	      0.00002198	      0.06865256	      0.00002198	      0.06358310	      0.00002198	      0.06779597	      0.00002198	      0.05711395	      0.00002198	      0.06869232
      0.74852707	     -1.38607372	    -21.14286142	      0.58707541	      8.95511821	     -0.58707541	     -8.95511821	      1.38607372	     21.14286142	     -0.28065173	     -4.28099936	      2.26812859	     34.59753095	      1.01950819	     15.55135205	     -1.01950819	    -15.55135205	     -2.26812859	    -34.59753095	      0.28065173	      4.28099936	    -31.02241059	     12.99146113	      5.72756453	     87.36700014	     31.02241059	    -12.99146113	     35.22696532	     32.18089758	     18.94515520	    122.10798129	     -1.55038920	   -151.11099098	     -0.00293816	     -0.12236876	      0.18904788	     -1.26490316	     -0.22886294	     -9.54891352	      5.41582279	    -36.23680632	      0.00002160	      0.12204091	      0.00002160	      0.10072076	      0.00002160	      0.13159153	      0.00002160	      0.07296615	      0.00002160	      0.08908609	      0.00002160	      0.08009756	      0.00002160	      0.06870722	      0.00002160	      0.12481681	      0.00002160	      0.00002160	      0.09995668	      0.00002160	      0.07987286	      0.00002160	      0.16928190	      0.00002160	      0.13501116	      0.00002160	      0.19693941	      0.00002160	      0.06825790	      0.00002160	      0.14762493	      0.00002160	      0.10139865	      0.00002160	      0.09642074	      0.00002160	      0.02260771	      0.00002160	      0.03434832	      0.00002160	      0.15101307	      0.00002160	      0.15740068	      0.00002160	      0.08900689	      0.00002160	      0.19380513	      0.00002160	      0.08931927	      0.00002160	      0.06486888	      0.00002160	      0.06538096	      0.00002160	      0.06273953	      0.00002160	      0.04381970	      0.00002160	      0.06186063	      0.00002160	      0.05796081	      0.00002160	      0.02685641	      0.00002160	      0.04762145	      0.00002160	      0.06939851	      0.00002160	      0.07076340	      0.00002160	      0.08311903	      0.00002160	      0.07277920	      0.00002160	      0.07664129	      0.00002160	      0.07302009	      0.00002160	      0.07262943	      0.00002160	      0.07837619	      0.00002160	      0.06690430	      0.00002160	      0.07904896	      0.00002160	      0.07288117	      0.00002160	      0.07625033	      0.00002160	      0.06862746	      0.00002160	      0.06356428	      0.00002160	      0.06779556	      0.00002160	      0.05714000	      0.00002160	      0.06870706
      0.74975505	     -1.41201612	    -21.10919294	      0.59806339	      8.94085783	     -0.59806339	     -8.94085783	      1.41201612	     21.10919294	     -0.28590454	     -4.27418218	      2.31057994	     34.54243688	      1.03858978	     15.52658765	     -1.03858978	    -15.52658765	     -2.31057994	    -34.54243688	      0.28590454	      4.27418218	    -31.00644869	     13.00560184	      5.83476429	     87.22787450	     31.00644869	    -13.00560184	     35.26616383	     31.65915065	     19.09468525	    121.43199185	     -1.73567682	   -150.64487115	     -0.00308856	     -0.12233125	      0.18750400	     -1.24970130	     -0.24060066	     -9.54771225	      5.37159379	    -35.80130496	      0.00002127	      0.12210353	      0.00002127	      0.10072048	      0.00002127	      0.13159117	      0.00002127	      0.07296441	      0.00002127	      0.08909778	      0.00002127	      0.08009733	      0.00002127	      0.06870703	      0.00002127	      0.12481642	      0.00002127	      0.00002127	      0.10003065	      0.00002127	      0.07993098	      0.00002127	      0.16928139	      0.00002127	      0.13501089	      0.00002127	      0.19693877	      0.00002127	      0.06831375	      0.00002127	      0.14766975	      0.00002127	      0.10139836	      0.00002127	      0.09642046	      0.00002127	      0.02260764	      0.00002127	      0.03433819	      0.00002127	      0.15096239	      0.00002127	      0.15739449	      0.00002127	      0.08898337	      0.00002127	      0.19374935	      0.00002127	      0.08927321	      0.00002127	      0.06483111	      0.00002127	      0.06539055	      0.00002127	      0.06274489	      0.00002127	      0.04383893	      0.00002127	      0.06188636	      0.00002127	      0.05796653	      0.00002127	      0.02685633	      0.00002127	      0.04763520	      0.00002127	      0.06941198	      0.00002127	      0.07079883	      0.00002127	      0.08315457	      0.00002127	      0.07280726	      0.00002127	      0.07667021	      0.00002127	      0.07305014	      0.00002127	      0.07265926	      0.00002127	      0.07837658	      0.00002127	      0.06690023	      0.00002127	      0.07904032	      0.00002127	      0.07287057	      0.00002127	      0.07625166	      0.00002127	      0.06860535	      0.00002127	      0.06354759	      0.00002127	      0.06779520	      0.00002127	      0.05716288	      0.00002127	      0.06871990
      0.75019013	     -1.42119759	    -21.09706538	      0.60195222	      8.93572117	     -0.60195222	     -8.93572117	      1.42119759	     21.09706538	     -0.28776360	     -4.27172659	      2.32560421	     34.52259171	      1.04534309	     15.51766738	     -1.04534309	    -15.51766738	     -2.32560421	    -34.52259171	      0.28776360	      4.27172659	    -31.00078917	     13.01067918	      5.87270414	     87.17776071	     31.00078917	    -13.01067918	     35.27989782	     31.47444359	     19.14746546	    121.19352434	     -1.80117932	   -150.46168820	     -0.00314171	     -0.12195739	      0.18696141	     -1.24453264	     -0.24474889	     -9.51914100	      5.35604980	    -35.65323392	      0.00002116	      0.12212566	      0.00002116	      0.10072038	      0.00002116	      0.13159105	      0.00002116	      0.07296381	      0.00002116	      0.08910181	      0.00002116	      0.08009725	      0.00002116	      0.06870696	      0.00002116	      0.12481628	      0.00002116	      0.00002116	      0.10005683	      0.00002116	      0.07995156	      0.00002116	      0.16928121	      0.00002116	      0.13501079	      0.00002116	      0.19693855	      0.00002116	      0.06833355	      0.00002116	      0.14768555	      0.00002116	      0.10139826	      0.00002116	      0.09642036	      0.00002116	      0.02260762	      0.00002116	      0.03433463	      0.00002116	      0.15094446	      0.00002116	      0.15739230	      0.00002116	      0.08897509	      0.00002116	      0.19372959	      0.00002116	      0.08925695	      0.00002116	      0.06481780	      0.00002116	      0.06539396	      0.00002116	      0.06274678	      0.00002116	      0.04384566	      0.00002116	      0.06189541	      0.00002116	      0.05796858	      0.00002116	      0.02685631	      0.00002116	      0.04764002	      0.00002116	      0.06941671	      0.00002116	      0.07081131	      0.00002116	      0.08316709	      0.00002116	      0.07281716	      0.00002116	      0.07668041	      0.00002116	      0.07306073	      0.00002116	      0.07266978	      0.00002116	      0.07837673	      0.00002116	      0.06689881	      0.00002116	      0.07903729	      0.00002116	      0.07286685	      0.00002116	      0.07625214	      0.00002116	      0.06859757	      0.00002116	      0.06354170	      0.00002116	      0.06779507	      0.00002116	      0.05717092	      0.00002116	      0.06872439
